<svg width="28" height="28" viewBox="0 0 28 28" fill="none" xmlns="http://www.w3.org/2000/svg">
<path d="M2.9165 14.0003C2.9165 8.7756 2.9165 6.16323 4.53962 4.54011C6.16274 2.91699 8.77511 2.91699 13.9998 2.91699C19.2245 2.91699 21.8369 2.91699 23.4601 4.54011C25.0832 6.16323 25.0832 8.7756 25.0832 14.0003C25.0832 19.225 25.0832 21.8374 23.4601 23.4606C21.8369 25.0837 19.2245 25.0837 13.9998 25.0837C8.77511 25.0837 6.16274 25.0837 4.53962 23.4606C2.9165 21.8374 2.9165 19.225 2.9165 14.0003Z" stroke="#020911" stroke-opacity="0.85" stroke-width="1.5" stroke-linejoin="round"/>
<path d="M13.1867 8H19.67M8 8H9.29667" stroke="#020911" stroke-opacity="0.85" stroke-width="1.5" stroke-linecap="round" stroke-linejoin="round"/>
<path d="M13.1867 14H19.67M8 14H9.29667" stroke="#020911" stroke-opacity="0.85" stroke-width="1.5" stroke-linecap="round" stroke-linejoin="round"/>
<path d="M13.1867 20H19.67M8 20H9.29667" stroke="#020911" stroke-opacity="0.85" stroke-width="1.5" stroke-linecap="round" stroke-linejoin="round"/>
</svg>
