<svg width="24" height="24" viewBox="0 0 24 24" fill="none" xmlns="http://www.w3.org/2000/svg">
<path d="M13.234 20.2518L21 12.2998" stroke="#8B8E91" stroke-width="1.5" stroke-linecap="round" stroke-linejoin="round"/>
<path d="M16 6.00012L7.58599 14.5861C7.21105 14.9612 7.00042 15.4698 7.00042 16.0001C7.00042 16.5305 7.21105 17.0391 7.58599 17.4141C7.96104 17.7891 8.46966 17.9997 8.99999 17.9997C9.53032 17.9997 10.0389 17.7891 10.414 17.4141L18.828 8.82812C19.5779 8.07801 19.9991 7.06078 19.9991 6.00012C19.9991 4.93947 19.5779 3.92223 18.828 3.17212C18.0779 2.42224 17.0606 2.00098 16 2.00098C14.9393 2.00098 13.9221 2.42224 13.172 3.17212L4.75699 11.7571C3.63168 12.8824 2.99948 14.4087 2.99948 16.0001C2.99948 17.5916 3.63168 19.1178 4.75699 20.2431C5.8823 21.3684 7.40856 22.0006 8.99999 22.0006C10.5914 22.0006 12.1177 21.3684 13.243 20.2431" stroke="#8B8E91" stroke-width="1.5" stroke-linecap="round" stroke-linejoin="round"/>
</svg>
