<svg width="28" height="28" viewBox="0 0 28 28" fill="none" xmlns="http://www.w3.org/2000/svg">
<path d="M3 14.0833C3 8.8586 3 6.24624 4.62311 4.62311C6.24624 3 8.8586 3 14.0833 3C19.308 3 21.9204 3 23.5436 4.62311C25.1667 6.24624 25.1667 8.8586 25.1667 14.0833C25.1667 19.308 25.1667 21.9204 23.5436 23.5436C21.9204 25.1667 19.308 25.1667 14.0833 25.1667C8.8586 25.1667 6.24624 25.1667 4.62311 23.5436C3 21.9204 3 19.308 3 14.0833Z" stroke="#020911" stroke-opacity="0.85" stroke-width="1.5"/>
<path d="M17.6666 19.9997V15.333M15.3333 17.6663H19.9999" stroke="#020911" stroke-opacity="0.85" stroke-width="1.25" stroke-linecap="round" stroke-linejoin="round"/>
<path d="M13 8.04102C15.002 8.04102 16.625 9.66398 16.625 11.666C16.625 12.8903 16.0173 13.9716 15.0879 14.6279C15.1805 14.6757 15.272 14.7254 15.3613 14.7783L15.6904 14.9912L15.7871 15.0732C15.9872 15.284 16.0184 15.6137 15.8457 15.8613C15.6728 16.1087 15.3527 16.1932 15.0859 16.0781L14.9756 16.0156L14.7236 15.8535C14.1215 15.4967 13.4188 15.2921 12.667 15.292C10.4348 15.292 8.625 17.1018 8.625 19.334C8.62465 19.6789 8.34496 19.959 8 19.959C7.65504 19.959 7.37535 19.6789 7.375 19.334C7.375 17.1208 8.73427 15.2256 10.6631 14.4355C9.87583 13.7706 9.375 12.7772 9.375 11.666C9.375 9.66399 10.998 8.04102 13 8.04102ZM13 9.29102C11.6883 9.29102 10.625 10.3543 10.625 11.666C10.625 12.9777 11.6883 14.041 13 14.041C14.3117 14.041 15.375 12.9777 15.375 11.666C15.375 10.3543 14.3117 9.29102 13 9.29102Z" fill="#020911" fill-opacity="0.85"/>
</svg>
