<svg width="21" height="20" viewBox="0 0 21 20" fill="none" xmlns="http://www.w3.org/2000/svg">
<path d="M12.75 5.41699H7.75C5.39297 5.41699 4.21447 5.41699 3.48223 6.14923C2.75 6.88146 2.75 8.05997 2.75 10.417V12.5003C2.75 14.8573 2.75 16.0358 3.48223 16.7681C4.21447 17.5003 5.39297 17.5003 7.75 17.5003H12.75C15.107 17.5003 16.2855 17.5003 17.0177 16.7681C17.75 16.0358 17.75 14.8573 17.75 12.5003V10.417C17.75 8.05997 17.75 6.88146 17.0177 6.14923C16.2855 5.41699 15.107 5.41699 12.75 5.41699Z" stroke="#353A40" stroke-width="1.25" stroke-linecap="round" stroke-linejoin="round"/>
<path d="M7.75 5.41667V5C7.75 3.82149 7.75 3.23223 8.11612 2.86612C8.48223 2.5 9.0715 2.5 10.25 2.5C11.4285 2.5 12.0178 2.5 12.3839 2.86612C12.75 3.23223 12.75 3.82149 12.75 5V5.41667" stroke="#353A40" stroke-width="1.25" stroke-linecap="round" stroke-linejoin="round"/>
<path d="M2.75 10H17.75" stroke="#353A40"/>
</svg>
