<svg width="21" height="20" viewBox="0 0 21 20" fill="none" xmlns="http://www.w3.org/2000/svg">
<path d="M11.5981 17.8062C11.2367 18.1445 10.7537 18.3337 10.2509 18.3337C9.74817 18.3337 9.26517 18.1445 8.90375 17.8062C5.59418 14.6887 1.15897 11.2061 3.32189 6.15004C4.49136 3.41629 7.29862 1.66699 10.2509 1.66699C13.2032 1.66699 16.0105 3.41629 17.18 6.15004C19.3402 11.1997 14.9158 14.6994 11.5981 17.8062Z" stroke="#353A40" stroke-width="1.25"/>
<path d="M13.1666 9.16667C13.1666 10.7775 11.8608 12.0833 10.2499 12.0833C8.63909 12.0833 7.33325 10.7775 7.33325 9.16667C7.33325 7.55583 8.63909 6.25 10.2499 6.25C11.8608 6.25 13.1666 7.55583 13.1666 9.16667Z" stroke="#353A40" stroke-width="1.25"/>
</svg>
