<svg width="21" height="20" viewBox="0 0 21 20" fill="none" xmlns="http://www.w3.org/2000/svg">
<g clip-path="url(#clip0_77_5414)">
<path d="M17.5617 15C18.1861 15 18.6827 14.6071 19.1287 14.0576C20.0416 12.9328 18.5427 12.034 17.9711 11.5938C17.39 11.1463 16.7412 10.8928 16.0833 10.8333M15.25 9.16667C16.4006 9.16667 17.3333 8.23392 17.3333 7.08333C17.3333 5.93274 16.4006 5 15.25 5" stroke="#353A40" stroke-width="1.25" stroke-linecap="round"/>
<path d="M2.93822 15C2.3138 15 1.81715 14.6071 1.3712 14.0576C0.458328 12.9328 1.95715 12.034 2.52879 11.5938C3.1099 11.1463 3.75874 10.8928 4.41659 10.8333M4.83325 9.16667C3.68266 9.16667 2.74992 8.23392 2.74992 7.08333C2.74992 5.93274 3.68266 5 4.83325 5" stroke="#353A40" stroke-width="1.25" stroke-linecap="round"/>
<path d="M6.98642 12.593C6.13494 13.1195 3.9024 14.1946 5.26217 15.5398C5.9264 16.197 6.66619 16.667 7.59627 16.667H12.9036C13.8337 16.667 14.5734 16.197 15.2377 15.5398C16.5974 14.1946 14.3649 13.1195 13.5134 12.593C11.5167 11.3583 8.9831 11.3583 6.98642 12.593Z" stroke="#353A40" stroke-width="1.25" stroke-linecap="round" stroke-linejoin="round"/>
<path d="M13.1666 6.24967C13.1666 7.86051 11.8608 9.16634 10.2499 9.16634C8.6391 9.16634 7.33325 7.86051 7.33325 6.24967C7.33325 4.63884 8.6391 3.33301 10.2499 3.33301C11.8608 3.33301 13.1666 4.63884 13.1666 6.24967Z" stroke="#353A40" stroke-width="1.25"/>
</g>
<defs>
<clipPath id="clip0_77_5414">
<rect width="20" height="20" fill="white" transform="translate(0.25)"/>
</clipPath>
</defs>
</svg>
