<svg width="32" height="32" viewBox="0 0 32 32" fill="none" xmlns="http://www.w3.org/2000/svg">
<rect width="32" height="32" rx="4" fill="#01A8F9"/>
<path d="M18.536 25.6856C18.574 25.7803 18.64 25.861 18.7253 25.9171C18.8105 25.9732 18.9108 26.0018 19.0128 25.9992C19.1148 25.9966 19.2136 25.9628 19.2958 25.9025C19.3781 25.8421 19.4399 25.7581 19.473 25.6616L25.973 6.66157C26.005 6.57296 26.0111 6.47707 25.9906 6.38512C25.9701 6.29317 25.9238 6.20896 25.8572 6.14235C25.7906 6.07573 25.7064 6.02946 25.6144 6.00896C25.5225 5.98846 25.4266 5.99456 25.338 6.02657L6.33799 12.5266C6.24148 12.5597 6.15741 12.6215 6.09706 12.7037C6.03671 12.786 6.00296 12.8847 6.00035 12.9867C5.99773 13.0887 6.02638 13.1891 6.08245 13.2743C6.13851 13.3595 6.21931 13.4256 6.31399 13.4636L14.244 16.6436C14.4947 16.7439 14.7224 16.894 14.9136 17.0848C15.1047 17.2756 15.2552 17.5031 15.356 17.7536L18.536 25.6856Z" stroke="white" stroke-width="1.5" stroke-linecap="round" stroke-linejoin="round"/>
<path d="M25.854 6.14746L14.914 17.0865" stroke="white" stroke-width="1.5" stroke-linecap="round" stroke-linejoin="round"/>
</svg>
