<svg width="28" height="28" viewBox="0 0 28 28" fill="none" xmlns="http://www.w3.org/2000/svg">
<path d="M2.33325 14.0003C2.33325 8.7756 2.33325 6.16323 3.95637 4.54011C5.57949 2.91699 8.19185 2.91699 13.4166 2.91699C18.6413 2.91699 21.2537 2.91699 22.8769 4.54011C24.4999 6.16323 24.4999 8.7756 24.4999 14.0003C24.4999 19.225 24.4999 21.8374 22.8769 23.4606C21.2537 25.0837 18.6413 25.0837 13.4166 25.0837C8.19185 25.0837 5.57949 25.0837 3.95637 23.4606C2.33325 21.8374 2.33325 19.225 2.33325 14.0003Z" stroke="#020911" stroke-opacity="0.85" stroke-width="1.5" stroke-linejoin="round"/>
<path d="M14.3812 9.22333L15.3637 11.2047C15.4977 11.4805 15.8551 11.7451 16.1564 11.7957L17.9374 12.0941C19.0763 12.2855 19.3442 13.1185 18.5236 13.9403L17.139 15.3363C16.9046 15.5727 16.7762 16.0286 16.8488 16.355L17.2451 18.0831C17.5577 19.451 16.8376 19.9801 15.6373 19.2652L13.9681 18.2689C13.6666 18.0888 13.1697 18.0888 12.8627 18.2689L11.1934 19.2652C9.99875 19.9801 9.27299 19.4453 9.58563 18.0831L9.982 16.355C10.0546 16.0286 9.92618 15.5727 9.6917 15.3363L8.30719 13.9403C7.49211 13.1185 7.75449 12.2855 8.89337 12.0941L10.6743 11.7957C10.9701 11.7451 11.3274 11.4805 11.4614 11.2047L12.444 9.22333C12.98 8.14821 13.8509 8.14821 14.3812 9.22333Z" stroke="#020911" stroke-opacity="0.85" stroke-width="1.5" stroke-linecap="round" stroke-linejoin="round"/>
</svg>
