<svg width="28" height="28" viewBox="0 0 28 28" fill="none" xmlns="http://www.w3.org/2000/svg">
<path d="M24.4972 14.5867C24.4972 14.5867 24.4999 14.0391 24.4999 13.4197C24.4999 8.19342 24.4999 5.58024 22.8769 3.95662C21.2537 2.33301 18.6413 2.33301 13.4166 2.33301C8.19185 2.33301 5.57949 2.33301 3.95637 3.95662C2.33325 5.58024 2.33325 8.19342 2.33325 13.4197C2.33325 18.6462 2.33325 21.2593 3.95637 22.8829C5.31741 24.2444 7.37403 24.4642 11.0833 24.4997" stroke="#020911" stroke-opacity="0.85" stroke-width="1.5" stroke-linecap="round"/>
<path d="M2.33325 8.16699H24.4999" stroke="#020911" stroke-opacity="0.85" stroke-width="1.5" stroke-linejoin="round"/>
<path d="M7 18.6667H8.16667M11.6667 14H17.5M7 14H8.16667" stroke="#020911" stroke-opacity="0.85" stroke-width="1.5" stroke-linecap="round" stroke-linejoin="round"/>
<path d="M19.8333 21.583H19.8438" stroke="#020911" stroke-opacity="0.85" stroke-width="2" stroke-linecap="round" stroke-linejoin="round"/>
<path d="M25.4007 21.0262C25.578 21.275 25.6667 21.3992 25.6667 21.5833C25.6667 21.7674 25.578 21.8917 25.4007 22.1404C24.6038 23.2579 22.5687 25.6667 19.8333 25.6667C17.098 25.6667 15.0628 23.2579 14.266 22.1404C14.0887 21.8917 14 21.7674 14 21.5833C14 21.3992 14.0887 21.275 14.266 21.0262C15.0628 19.9088 17.098 17.5 19.8333 17.5C22.5687 17.5 24.6038 19.9088 25.4007 21.0262Z" stroke="#020911" stroke-opacity="0.85" stroke-width="1.5"/>
</svg>
