<svg width="21" height="20" viewBox="0 0 21 20" fill="none" xmlns="http://www.w3.org/2000/svg">
<path d="M12.75 12.5C12.75 13.1903 13.3097 13.75 14 13.75C14.6903 13.75 15.25 13.1903 15.25 12.5C15.25 11.8097 14.6903 11.25 14 11.25C13.3097 11.25 12.75 11.8097 12.75 12.5Z" stroke="#353A40" stroke-width="1.25"/>
<path d="M12.7532 6.50234C8.23016 6.18892 4.50392 5.51778 2.75 5V12.5512C2.75 14.2132 2.75 15.0442 3.26632 15.722C3.78263 16.3997 4.49103 16.5911 5.90781 16.9739C8.19686 17.5924 10.6029 17.9608 12.7588 18.1714C14.9932 18.3898 16.1104 18.4989 16.9302 17.7498C17.75 17.0006 17.75 15.7972 17.75 13.3902V11.7122C17.75 9.37478 17.75 8.20608 17.0774 7.48073C16.4049 6.75538 15.1877 6.67103 12.7532 6.50234Z" stroke="#353A40" stroke-width="1.25" stroke-linecap="round" stroke-linejoin="round"/>
<path d="M14.9382 6.66699C15.2529 5.48093 15.5377 3.32384 14.6892 2.25276C14.1513 1.57388 13.3519 1.63911 12.5682 1.70804C8.44826 2.07037 5.53787 2.80642 3.91084 3.30647C3.21123 3.52149 2.75 4.20467 2.75 4.96736" stroke="#353A40" stroke-width="1.25" stroke-linejoin="round"/>
</svg>
