<svg width="25" height="25" viewBox="0 0 25 25" fill="none" xmlns="http://www.w3.org/2000/svg">
<path d="M20.3751 14.65V18.9C20.3751 19.994 19.5881 20.936 18.5031 21.08C16.4161 21.357 14.2871 21.5 12.1251 21.5C9.96306 21.5 7.83406 21.357 5.74706 21.08C4.66206 20.936 3.87506 19.994 3.87506 18.9V14.65M20.3751 14.65C20.6125 14.4436 20.8025 14.1883 20.932 13.9016C21.0614 13.6149 21.1273 13.3036 21.1251 12.989V9.206C21.1251 8.125 20.3571 7.191 19.2881 7.031C18.1554 6.86142 17.017 6.73234 15.8751 6.644M20.3751 14.65C20.1811 14.815 19.9551 14.945 19.7021 15.03C17.2583 15.8408 14.6998 16.2528 12.1251 16.25C9.47706 16.25 6.93006 15.821 4.54806 15.03C4.30131 14.9479 4.07278 14.8189 3.87506 14.65M3.87506 14.65C3.6376 14.4436 3.44762 14.1883 3.31815 13.9016C3.18869 13.6149 3.12282 13.3036 3.12506 12.989V9.206C3.12506 8.125 3.89306 7.191 4.96206 7.031C6.09475 6.86142 7.23314 6.73233 8.37506 6.644M15.8751 6.644V5.75C15.8751 5.15326 15.638 4.58097 15.216 4.15901C14.7941 3.73705 14.2218 3.5 13.6251 3.5H10.6251C10.0283 3.5 9.45602 3.73705 9.03407 4.15901C8.61211 4.58097 8.37506 5.15326 8.37506 5.75V6.644M15.8751 6.644C13.3788 6.45108 10.8713 6.45108 8.37506 6.644M12.1251 13.25H12.1331V13.258H12.1251V13.25Z" stroke="#020911" stroke-width="1.5" stroke-linecap="round" stroke-linejoin="round"/>
</svg>
